custom-analysis
version=1
nRows=4
nColumns=98
inDegrees=no

This file contains tibia displacement and acting force.

Units are S.I. units (seconds, meters, Newtons, ...)
Angles are in degrees.

endheader
time	APT	SIT	knee_angle	aACL_R_force	pACL_R_force	aPCL_R_force	pPCL_R_force	aMCL_R_force	mMCL_R_force	pMCL_R_force	aLCL_R_force	mLCL_R_force	pLCL_R_force	aPCL_L_force	pPCL_L_force	aMCL_L_force	aLCL_L_force	aACL_R_length	pACL_R_length	aPCL_R_length	pPCL_R_length	aMCL_R_length	mMCL_R_length	pMCL_R_length	aLCL_R_length	mLCL_R_length	pLCL_R_length	aPCL_L_length	pPCL_L_length	aMCL_L_length	aLCL_L_length	aACL_R_strain	pACL_R_strain	aPCL_R_strain	pPCL_R_strain	aMCL_R_strain	mMCL_R_strain	pMCL_R_strain	aLCL_R_strain	mLCL_R_strain	pLCL_R_strain	aPCL_L_strain	pPCL_L_strain	aMCL_L_strain	aLCL_L_strain	femur_lat_meniscii_r.femur_lat_r.force.X	femur_lat_meniscii_r.femur_lat_r.force.Y	femur_lat_meniscii_r.femur_lat_r.force.Z	femur_lat_meniscii_r.femur_lat_r.torque.X	femur_lat_meniscii_r.femur_lat_r.torque.Y	femur_lat_meniscii_r.femur_lat_r.torque.Z	femur_lat_meniscii_r.meniscus_lat_r.force.X	femur_lat_meniscii_r.meniscus_lat_r.force.Y	femur_lat_meniscii_r.meniscus_lat_r.force.Z	femur_lat_meniscii_r.meniscus_lat_r.torque.X	femur_lat_meniscii_r.meniscus_lat_r.torque.Y	femur_lat_meniscii_r.meniscus_lat_r.torque.Z	femur_med_meniscii_r.femur_med_r.force.X	femur_med_meniscii_r.femur_med_r.force.Y	femur_med_meniscii_r.femur_med_r.force.Z	femur_med_meniscii_r.femur_med_r.torque.X	femur_med_meniscii_r.femur_med_r.torque.Y	femur_med_meniscii_r.femur_med_r.torque.Z	femur_med_meniscii_r.meniscus_med_r.force.X	femur_med_meniscii_r.meniscus_med_r.force.Y	femur_med_meniscii_r.meniscus_med_r.force.Z	femur_med_meniscii_r.meniscus_med_r.torque.X	femur_med_meniscii_r.meniscus_med_r.torque.Y	femur_med_meniscii_r.meniscus_med_r.torque.Z	femur_med_tibia_r.tibia_upper_r.force.X	femur_med_tibia_r.tibia_upper_r.force.Y	femur_med_tibia_r.tibia_upper_r.force.Z	femur_med_tibia_r.tibia_upper_r.torque.X	femur_med_tibia_r.tibia_upper_r.torque.Y	femur_med_tibia_r.tibia_upper_r.torque.Z	femur_med_tibia_r.femur_med_r.force.X	femur_med_tibia_r.femur_med_r.force.Y	femur_med_tibia_r.femur_med_r.force.Z	femur_med_tibia_r.femur_med_r.torque.X	femur_med_tibia_r.femur_med_r.torque.Y	femur_med_tibia_r.femur_med_r.torque.Z	femur_lat_tibia_r.tibia_upper_r.force.X	femur_lat_tibia_r.tibia_upper_r.force.Y	femur_lat_tibia_r.tibia_upper_r.force.Z	femur_lat_tibia_r.tibia_upper_r.torque.X	femur_lat_tibia_r.tibia_upper_r.torque.Y	femur_lat_tibia_r.tibia_upper_r.torque.Z	femur_lat_tibia_r.femur_lat_r.force.X	femur_lat_tibia_r.femur_lat_r.force.Y	femur_lat_tibia_r.femur_lat_r.force.Z	femur_lat_tibia_r.femur_lat_r.torque.X	femur_lat_tibia_r.femur_lat_r.torque.Y	femur_lat_tibia_r.femur_lat_r.torque.Z	femur_lat_meniscii_force_r	femur_med_meniscii_force_r	femur_lat_tibia_force_r	femur_med_tibia_force_r
      0.16884854	      0.01458223	      0.01757349	     56.22481412	     11.95811090	    -14.27821636	    225.25730269	    146.95817786	      0.00000000	      0.00000000	      0.00000000	      0.00000000	      0.00000000	      0.00000000	      0.00000000	      0.00000000	      0.00000001	      0.00000000	      0.03289867	      0.02515563	      0.03290944	      0.03085737	      0.05941422	      0.05936735	      0.05663988	      0.05092942	      0.04634747	      0.04127697	      0.01525851	      0.01651186	      0.06550154	      0.04489616	      0.06105901	      0.00386812	      0.05834125	      0.03244042	     -0.01020834	     -0.00712695	     -0.03555585	     -0.09017573	     -0.17704862	     -0.21140915	      0.00000079	     -0.32847694	      0.00000060	     -0.00000086	      8.51547288	     69.51355998	     11.55387322	     -6.36626111	      0.25338922	      2.96582772	     -8.51547288	    -69.51355998	    -11.55387322	      2.02867985	     -0.52614791	      1.87211556	      1.64754775	      1.02570829	     -0.35566737	      0.16163466	     -0.03221249	      0.65676814	     -1.64754775	     -1.02570829	      0.35566737	     -0.02168929	      0.03673601	      0.00454213	   -263.71692440	   -575.20816291	    179.90085579	    -11.95234280	      8.56338126	      9.85008984	    263.71692440	    575.20816291	   -179.90085579	     82.85276820	     -5.12009213	    105.09238805	    -39.64171874	   -301.01347439	    -69.36034754	      8.99754415	     -2.97878676	      7.84637513	     39.64171874	    301.01347439	     69.36034754	    -35.27280655	      1.36463742	     14.17596643	     70.97985831	      1.97306623	    311.43448017	    657.85664457
      0.16919671	      0.01459475	      0.01763560	     56.39569811	     11.67167890	    -14.15402298	    230.12572239	    149.20584520	      0.00000000	      0.00000000	      0.00000000	      0.00000000	      0.00000000	      0.00000000	      0.00000000	      0.00000000	      0.00000001	      0.00000000	      0.03288447	      0.02514329	      0.03293758	      0.03087435	      0.05942614	      0.05936507	      0.05662813	      0.05092381	      0.04633166	      0.04125502	      0.01525851	      0.01651186	      0.06550154	      0.04489616	      0.06060123	      0.00337549	      0.05924620	      0.03300840	     -0.01000988	     -0.00716509	     -0.03575590	     -0.09027592	     -0.17732941	     -0.21182865	      0.00000079	     -0.32847694	      0.00000060	     -0.00000086	      8.69474557	     69.35982544	     11.58629061	     -6.37677785	      0.25688689	      3.03656900	     -8.69474557	    -69.35982544	    -11.58629061	      2.02575465	     -0.53127292	      1.87116278	      1.70746437	      1.05278848	     -0.37017548	      0.16790324	     -0.03345061	      0.68069554	     -1.70746437	     -1.05278848	      0.37017548	     -0.02226517	      0.03819329	      0.00456018	   -269.57960821	   -577.05563591	    181.20342799	    -11.99523175	      8.69203723	      9.82242494	    269.57960821	    577.05563591	   -181.20342799	     83.41113710	     -5.22279215	    107.47237155	    -40.41373724	   -299.58214682	    -69.35548230	      8.95817344	     -3.00238578	      7.81105428	     40.41373724	    299.58214682	     69.35548230	    -35.23769201	      1.38349044	     14.49497905	     70.85637668	      2.03981079	    310.14982795	    662.19412139
      0.16943082	      0.01460331	      0.01767738	     56.51069354	     11.49764980	    -14.05866213	    233.38490085	    150.69883999	      0.00000000	      0.00000000	      0.00000000	      0.00000000	      0.00000000	      0.00000000	      0.00000000	      0.00000000	      0.00000001	      0.00000000	      0.03287500	      0.02513506	      0.03295644	      0.03088569	      0.05943418	      0.05936356	      0.05662026	      0.05092004	      0.04632104	      0.04124031	      0.01525851	      0.01651186	      0.06550154	      0.04489616	      0.06029570	      0.00304731	      0.05985276	      0.03338774	     -0.00987581	     -0.00719044	     -0.03588986	     -0.09034324	     -0.17751783	     -0.21210956	      0.00000079	     -0.32847694	      0.00000060	     -0.00000086	      8.77479455	     69.27134504	     11.60749059	     -6.38369424	      0.25843021	      3.06725136	     -8.77479455	    -69.27134504	    -11.60749059	      2.02389373	     -0.53381786	      1.87204419	      1.74872902	      1.07162611	     -0.38019633	      0.17226624	     -0.03429123	      0.69716017	     -1.74872902	     -1.07162611	      0.38019633	     -0.02269534	      0.03918599	      0.00459392	   -273.71588579	   -578.38297569	    182.26178289	    -12.03052662	      8.78580745	      9.80076432	    273.71588579	    578.38297569	   -182.26178289	     83.86411327	     -5.29537888	    109.15340104	    -40.88537792	   -298.73107717	    -69.08099506	      8.92598622	     -3.00964404	      7.79154440	     40.88537792	    298.73107717	     69.08099506	    -35.10299343	      1.39366769	     14.68930125	     70.78312017	      2.08590147	    309.32839261	    665.33195490
      0.16977067	      0.01461597	      0.01773806	     56.67776579	     11.26138860	    -13.90512759	    238.11073083	    152.88027031	      0.00000000	      0.00000000	      0.00000000	      0.00000000	      0.00000000	      0.00000000	      0.00000000	      0.00000000	      0.00000001	      0.00000000	      0.03286136	      0.02512324	      0.03298373	      0.03090204	      0.05944593	      0.05936139	      0.05660890	      0.05091458	      0.04630569	      0.04121907	      0.01525851	      0.01651186	      0.06550154	      0.04489616	      0.05985587	      0.00257567	      0.06073053	      0.03393485	     -0.00968011	     -0.00722663	     -0.03608332	     -0.09044068	     -0.17779055	     -0.21251540	      0.00000079	     -0.32847694	      0.00000060	     -0.00000086	      8.89964810	     69.14614224	     11.56109684	     -6.36187483	      0.26031081	      3.11530977	     -8.89964810	    -69.14614224	    -11.56109684	      2.01925750	     -0.53545750	      1.87323925	      1.80856817	      1.08498702	     -0.38973788	      0.17635678	     -0.03543640	      0.72120285	     -1.80856817	     -1.08498702	      0.38973788	     -0.02304461	      0.04044192	      0.00417297	   -280.01758859	   -580.14962275	    183.25245421	    -12.06349242	      8.91009402	      9.75657635	    280.01758859	    580.14962275	   -183.25245421	     84.29171695	     -5.40152044	    111.71885487	    -41.89646481	   -297.01928434	    -69.03016338	      8.87929737	     -3.03712140	      7.73953838	     41.89646481	    297.01928434	     69.03016338	    -35.04322822	      1.41701433	     15.11104133	     70.66860465	      2.14476368	    307.80015024	    669.74987620
